<?xml version="1.0" encoding="UTF-8" standalone="no"?>
<svg
   xmlns:dc="http://purl.org/dc/elements/1.1/"
   xmlns:cc="http://creativecommons.org/ns#"
   xmlns:rdf="http://www.w3.org/1999/02/22-rdf-syntax-ns#"
   xmlns:svg="http://www.w3.org/2000/svg"
   xmlns="http://www.w3.org/2000/svg"
   xmlns:xlink="http://www.w3.org/1999/xlink"
   xmlns:sodipodi="http://sodipodi.sourceforge.net/DTD/sodipodi-0.dtd"
   xmlns:inkscape="http://www.inkscape.org/namespaces/inkscape"
   sodipodi:docname="sampling.svg"
   inkscape:version="1.0 (4035a4fb49, 2020-05-01)"
   id="svg8"
   version="1.1"
   viewBox="0 0 110.06667 52.916666"
   height="150pt"
   width="312pt">
  <defs
     id="defs2">
    <marker
       inkscape:stockid="Arrow2Mend"
       orient="auto"
       refY="0.0"
       refX="0.0"
       id="marker1951"
       style="overflow:visible;"
       inkscape:isstock="true">
      <path
         id="path1949"
         style="fill-rule:evenodd;stroke-width:0.625;stroke-linejoin:round;stroke:#595959;stroke-opacity:1;fill:#595959;fill-opacity:1"
         d="M 8.7185878,4.0337352 L -2.2072895,0.016013256 L 8.7185884,-4.0017078 C 6.9730900,-1.6296469 6.9831476,1.6157441 8.7185878,4.0337352 z "
         transform="scale(0.6) rotate(180) translate(0,0)" />
    </marker>
    <marker
       inkscape:collect="always"
       inkscape:isstock="true"
       style="overflow:visible;"
       id="marker1879"
       refX="0.0"
       refY="0.0"
       orient="auto"
       inkscape:stockid="Arrow2Mend">
      <path
         transform="scale(0.6) rotate(180) translate(0,0)"
         d="M 8.7185878,4.0337352 L -2.2072895,0.016013256 L 8.7185884,-4.0017078 C 6.9730900,-1.6296469 6.9831476,1.6157441 8.7185878,4.0337352 z "
         style="fill-rule:evenodd;stroke-width:0.625;stroke-linejoin:round;stroke:#595959;stroke-opacity:1;fill:#595959;fill-opacity:1"
         id="path1877" />
    </marker>
    <marker
       inkscape:collect="always"
       inkscape:stockid="Arrow2Mend"
       orient="auto"
       refY="0.0"
       refX="0.0"
       id="marker1809"
       style="overflow:visible;"
       inkscape:isstock="true">
      <path
         id="path1807"
         style="fill-rule:evenodd;stroke-width:0.625;stroke-linejoin:round;stroke:#595959;stroke-opacity:1;fill:#595959;fill-opacity:1"
         d="M 8.7185878,4.0337352 L -2.2072895,0.016013256 L 8.7185884,-4.0017078 C 6.9730900,-1.6296469 6.9831476,1.6157441 8.7185878,4.0337352 z "
         transform="scale(0.6) rotate(180) translate(0,0)" />
    </marker>
    <marker
       inkscape:collect="always"
       inkscape:isstock="true"
       style="overflow:visible;"
       id="marker1665"
       refX="0.0"
       refY="0.0"
       orient="auto"
       inkscape:stockid="Arrow2Mend">
      <path
         transform="scale(0.6) rotate(180) translate(0,0)"
         d="M 8.7185878,4.0337352 L -2.2072895,0.016013256 L 8.7185884,-4.0017078 C 6.9730900,-1.6296469 6.9831476,1.6157441 8.7185878,4.0337352 z "
         style="fill-rule:evenodd;stroke-width:0.625;stroke-linejoin:round;stroke:#595959;stroke-opacity:1;fill:#595959;fill-opacity:1"
         id="path1663" />
    </marker>
    <marker
       inkscape:isstock="true"
       style="overflow:visible;"
       id="Arrow1Send"
       refX="0.0"
       refY="0.0"
       orient="auto"
       inkscape:stockid="Arrow1Send">
      <path
         transform="scale(0.2) rotate(180) translate(6,0)"
         style="fill-rule:evenodd;stroke:#000000;stroke-width:1pt;stroke-opacity:1;fill:#000000;fill-opacity:1"
         d="M 0.0,0.0 L 5.0,-5.0 L -12.5,0.0 L 5.0,5.0 L 0.0,0.0 z "
         id="path1356" />
    </marker>
    <marker
       inkscape:isstock="true"
       style="overflow:visible;"
       id="Arrow2Mend"
       refX="0.0"
       refY="0.0"
       orient="auto"
       inkscape:stockid="Arrow2Mend">
      <path
         transform="scale(0.6) rotate(180) translate(0,0)"
         d="M 8.7185878,4.0337352 L -2.2072895,0.016013256 L 8.7185884,-4.0017078 C 6.9730900,-1.6296469 6.9831476,1.6157441 8.7185878,4.0337352 z "
         style="fill-rule:evenodd;stroke-width:0.625;stroke-linejoin:round;stroke:#000000;stroke-opacity:1;fill:#000000;fill-opacity:1"
         id="path1368" />
    </marker>
    <marker
       inkscape:isstock="true"
       style="overflow:visible;"
       id="Arrow1Lend"
       refX="0.0"
       refY="0.0"
       orient="auto"
       inkscape:stockid="Arrow1Lend">
      <path
         transform="scale(0.8) rotate(180) translate(12.5,0)"
         style="fill-rule:evenodd;stroke:#000000;stroke-width:1pt;stroke-opacity:1;fill:#000000;fill-opacity:1"
         d="M 0.0,0.0 L 5.0,-5.0 L -12.5,0.0 L 5.0,5.0 L 0.0,0.0 z "
         id="path1344" />
    </marker>
  </defs>
  <sodipodi:namedview
     inkscape:snap-grids="true"
     units="pt"
     inkscape:window-maximized="1"
     inkscape:window-y="19"
     inkscape:window-x="0"
     inkscape:window-height="1061"
     inkscape:window-width="1920"
     showgrid="true"
     inkscape:document-rotation="0"
     inkscape:current-layer="layer1"
     inkscape:document-units="mm"
     inkscape:cy="122.4048"
     inkscape:cx="190.57829"
     inkscape:zoom="3.1361549"
     inkscape:pageshadow="2"
     inkscape:pageopacity="0.0"
     borderopacity="1.0"
     bordercolor="#666666"
     pagecolor="#ffffff"
     id="base">
    <inkscape:grid
       id="grid506"
       type="xygrid" />
  </sodipodi:namedview>
  <metadata
     id="metadata5">
    <rdf:RDF>
      <cc:Work
         rdf:about="">
        <dc:format>image/svg+xml</dc:format>
        <dc:type
           rdf:resource="http://purl.org/dc/dcmitype/StillImage" />
        <dc:title></dc:title>
      </cc:Work>
    </rdf:RDF>
  </metadata>
  <g
     id="layer1"
     inkscape:groupmode="layer"
     inkscape:label="Layer 1">
    <image
       sodipodi:absref="/home/morris/src/morris-frank/thesis-tex/figures/mixing/bass.png"
       xlink:href="mixing/bass.png"
       y="14.552083"
       x="7.9375"
       width="11.393579"
       height="11.475549"
       preserveAspectRatio="none"
       style="image-rendering:optimizeQuality"
       id="image460" />
    <image
       sodipodi:absref="/home/morris/src/morris-frank/thesis-tex/figures/mixing/drums.png"
       xlink:href="mixing/drums.png"
       y="26.889034"
       x="7.9375"
       width="11.393579"
       height="11.475549"
       preserveAspectRatio="none"
       style="image-rendering:optimizeQuality"
       id="image474" />
    <image
       sodipodi:absref="/home/morris/src/morris-frank/thesis-tex/figures/mixing/other.png"
       xlink:href="mixing/other.png"
       y="39.6875"
       x="7.9375"
       width="11.393579"
       height="11.475549"
       preserveAspectRatio="none"
       style="image-rendering:optimizeQuality"
       id="image488" />
    <image
       sodipodi:absref="/home/morris/src/morris-frank/thesis-tex/figures/mixing/voice.png"
       xlink:href="mixing/voice.png"
       y="1.7536179"
       x="7.9375"
       width="11.393579"
       height="11.475549"
       preserveAspectRatio="none"
       style="image-rendering:optimizeQuality"
       id="image502" />
    <path
       id="path516"
       d="M 19.84375,9.2604166 H 42.333333"
       style="fill:none;stroke:#595959;stroke-width:0.265;stroke-linecap:butt;stroke-linejoin:miter;stroke-miterlimit:4;stroke-dasharray:none;stroke-opacity:1;marker-end:url(#marker1665)" />
    <path
       style="fill:none;stroke:#595959;stroke-width:0.265;stroke-linecap:butt;stroke-linejoin:miter;stroke-miterlimit:4;stroke-dasharray:none;stroke-opacity:1;marker-end:url(#marker1809)"
       d="M 19.84375,46.302083 H 42.333333"
       id="path1805" />
    <path
       id="path1875"
       d="M 19.84375,34.395833 H 42.333333"
       style="fill:none;stroke:#595959;stroke-width:0.265;stroke-linecap:butt;stroke-linejoin:miter;stroke-miterlimit:4;stroke-dasharray:none;stroke-opacity:1;marker-end:url(#marker1879)" />
    <path
       style="fill:none;stroke:#595959;stroke-width:0.265;stroke-linecap:butt;stroke-linejoin:miter;stroke-miterlimit:4;stroke-dasharray:none;stroke-opacity:1;marker-end:url(#marker1951)"
       d="M 19.84375,22.489583 H 42.333333"
       id="path1947" />
    <ellipse
       ry="5.2916665"
       rx="5.953125"
       cy="10.583333"
       cx="56.223957"
       id="path2063"
       style="fill:none;stroke:#595959;stroke-width:0.264999;stroke-miterlimit:4;stroke-dasharray:none;stroke-opacity:1" />
    <ellipse
       ry="3.96875"
       rx="8.598958"
       cy="22.489584"
       cx="54.901039"
       id="path2065"
       style="fill:none;stroke:#595959;stroke-width:0.264999;stroke-miterlimit:4;stroke-dasharray:none;stroke-opacity:1" />
    <ellipse
       ry="4.6302085"
       rx="7.2760415"
       cy="35.057293"
       cx="57.546875"
       id="path2067"
       style="fill:none;stroke:#595959;stroke-width:0.264999;stroke-miterlimit:4;stroke-dasharray:none;stroke-opacity:1" />
    <ellipse
       ry="3.96875"
       rx="5.953125"
       cy="46.302082"
       cx="52.255207"
       id="path2069"
       style="fill:none;stroke:#595959;stroke-width:0.264999;stroke-miterlimit:4;stroke-dasharray:none;stroke-opacity:1" />
    <path
       id="path2071"
       d="m 50.270833,14.552083 h 5.291666 2.645834 c 0,0 2.645833,0 0,-1.322916 -2.645834,-1.322917 -2.645834,-2.645834 -2.645834,-2.645834 0,0 -1.322916,0 0,0 1.322917,0 2.645834,0 2.645834,0 h 1.322916"
       style="fill:none;stroke:#000000;stroke-width:0.264583px;stroke-linecap:butt;stroke-linejoin:miter;stroke-opacity:1" />
    <path
       id="path2073"
       d="m 63.499999,26.458333 c -1.322916,-2.645833 0,-2.645833 -2.645833,-3.96875 -2.645833,-1.322917 -3.96875,1.322917 -3.96875,1.322917 0,0 0,-1.322917 -1.322917,0 -1.322916,1.322916 -2.645833,1.322916 -2.645833,0 0,-1.322917 0,-2.645834 0,-2.645834"
       style="fill:none;stroke:#000000;stroke-width:0.264583px;stroke-linecap:butt;stroke-linejoin:miter;stroke-opacity:1" />
    <path
       id="path2075"
       d="m 47.624999,39.6875 c 5.291667,-1.322917 3.96875,-2.645834 6.614584,-2.645834 2.645833,0 2.645833,-1.322916 3.96875,-1.322916 1.322916,0 1.322916,-3.96875 0,-3.96875 -1.322917,0 -2.645834,0 -2.645834,1.322916 0,1.322917 0,1.322917 0,1.322917"
       style="fill:none;stroke:#000000;stroke-width:0.264583px;stroke-linecap:butt;stroke-linejoin:miter;stroke-opacity:1" />
    <path
       id="path2077"
       d="m 51.593749,51.593749 c 1.322917,-1.322916 0,-3.96875 1.322917,-3.96875 1.322917,0 0,-1.322916 0,-1.322916 0,0 0,1.322916 -1.322917,0 -1.322916,-1.322917 0,-1.322917 -1.322916,-1.322917 -1.322917,0 -2.645834,-1.322917 0,-1.322917 2.645833,0 3.96875,0 3.96875,0 0,0 0,1.322917 0,1.322917 v 0 l 1.322916,1.322917"
       style="fill:none;stroke:#000000;stroke-width:0.264583px;stroke-linecap:butt;stroke-linejoin:miter;stroke-opacity:1" />
    <path
       id="path2079"
       d="m 59.531249,46.302083 c 3.96875,-1.322917 19.84375,-17.197917 19.84375,-17.197917"
       style="fill:none;stroke:#000000;stroke-width:0.264583px;stroke-linecap:butt;stroke-linejoin:miter;stroke-opacity:1" />
    <path
       id="path2081"
       d="M 66.145832,35.71875 79.374999,29.104166"
       style="fill:none;stroke:#000000;stroke-width:0.264583px;stroke-linecap:butt;stroke-linejoin:miter;stroke-opacity:1" />
    <path
       id="path2083"
       d="m 64.822916,22.489583 14.552083,6.614583"
       style="fill:none;stroke:#000000;stroke-width:0.264583px;stroke-linecap:butt;stroke-linejoin:miter;stroke-opacity:1" />
    <path
       id="path2085"
       d="m 63.499999,9.2604166 15.875,19.8437494"
       style="fill:none;stroke:#000000;stroke-width:0.264583px;stroke-linecap:butt;stroke-linejoin:miter;stroke-opacity:1" />
    <text
       id="text2089"
       y="29.880699"
       x="81.22905"
       style="font-style:normal;font-variant:normal;font-weight:normal;font-stretch:normal;font-size:4.9389px;line-height:1.25;font-family:'Source Sans Pro';-inkscape-font-specification:'Source Sans Pro, Normal';font-variant-ligatures:normal;font-variant-caps:normal;font-variant-numeric:normal;font-feature-settings:normal;text-align:center;letter-spacing:0px;word-spacing:0px;writing-mode:lr-tb;text-anchor:middle;fill:#000000;fill-opacity:1;stroke:none;stroke-width:0.264583"
       xml:space="preserve"><tspan
         style="stroke-width:0.264583"
         y="29.880699"
         x="81.22905"
         id="tspan2087"
         sodipodi:role="line">+</tspan></text>
    <image
       sodipodi:absref="/home/morris/src/morris-frank/thesis-tex/figures/mixing/drums_wav.png"
       xlink:href="mixing/drums_wav.png"
       y="23.959385"
       x="87.3125"
       width="13.915266"
       height="10.436448"
       preserveAspectRatio="none"
       style="image-rendering:optimizeQuality"
       id="image2233" />
  </g>
</svg>
